<svg width="24" height="24" viewBox="0 0 24 24" fill="none" xmlns="http://www.w3.org/2000/svg">
<mask id="mask0_4_150" style="mask-type:alpha" maskUnits="userSpaceOnUse" x="0" y="0" width="24" height="24">
<rect width="24" height="24" fill="#D9D9D9"/>
</mask>
<g mask="url(#mask0_4_150)">
<path d="M12 21.5001C10.8205 21.5001 9.71542 21.277 8.68475 20.8309C7.65392 20.3847 6.75517 19.7783 5.9885 19.0116C5.22183 18.2449 4.61542 17.3462 4.16925 16.3154C3.72308 15.2847 3.5 14.1796 3.5 13.0001H5C5 14.9501 5.67917 16.6043 7.0375 17.9626C8.39583 19.3209 10.05 20.0001 12 20.0001C13.95 20.0001 15.6042 19.3209 16.9625 17.9626C18.3208 16.6043 19 14.9501 19 13.0001C19 11.0501 18.3208 9.39595 16.9625 8.03761C15.6042 6.67928 13.95 6.00011 12 6.00011H11.7345L13.323 7.58861L12.2692 8.67311L8.84625 5.24061L12.2885 1.80786L13.3422 2.89236L11.7345 4.50011H12C13.1795 4.50011 14.2846 4.7232 15.3152 5.16936C16.3461 5.61553 17.2448 6.22194 18.0115 6.98861C18.7782 7.75528 19.3846 8.65403 19.8307 9.68486C20.2769 10.7155 20.5 11.8206 20.5 13.0001C20.5 14.1796 20.2769 15.2847 19.8307 16.3154C19.3846 17.3462 18.7782 18.2449 18.0115 19.0116C17.2448 19.7783 16.3461 20.3847 15.3152 20.8309C14.2846 21.277 13.1795 21.5001 12 21.5001Z" fill="white"/>
</g>
</svg>
